# xmcd
#
# Track frame offsets: 
#        150
#        16193
#        33289
#        47983
#        62421
#        77139
#        96013
#        112933
#        128216
#        144374
#        162936
#        178719
#        196110
#        210470
#        224417
#
# Disc length: 3206 seconds
#
# Revision: 1
# Processed by: cddbd v1.5.2PL0 Copyright (c) Steve Scherf et al.
# Submitted via: ExactAudioCopy v1.0b3
#
DISCID=c40c840f
DTITLE=Connick, Harry Jr. - Your Songs
DYEAR=2009
DGENRE=Jazz
TTITLE0=All The Way
TTITLE1=Just The Way You Are
TTITLE2=Can't Help Falling In Love With You
TTITLE3=And I Love Her
TTITLE4=(They Long To Be) Close To You
TTITLE5=Bésame Mucho (Kiss Me Much)
TTITLE6=The Way You Look Tonight
TTITLE7=First Time Ever I Saw Your Face
TTITLE8=Your Song
TTITLE9=Some Enchanted Evening
TTITLE10=And I Love You So
TTITLE11=Who Can I Turn To (When Nobody Needs Me)
TTITLE12=Smile
TTITLE13=Mona Lisa
TTITLE14=Connick, Harry Jr. with Carla Bruni - And I Love Her
EXTD=YEAR: 2009
EXTT0=
EXTT1=
EXTT2=
EXTT3=
EXTT4=
EXTT5=
EXTT6=
EXTT7=
EXTT8=
EXTT9=
EXTT10=
EXTT11=
EXTT12=
EXTT13=
EXTT14=
PLAYORDER=
